<svg xmlns="http://www.w3.org/2000/svg" width="405.848" height="405.849"><defs><linearGradient id="a" x1=".5" x2=".5" y2="1" gradientUnits="objectBoundingBox"><stop offset="0" stop-color="#f40e67"/><stop offset="1" stop-color="#fccd11"/></linearGradient></defs><path data-name="Union 1" d="M179.756 457.279v-4.936h5.925v4.937zm-126.232-1.105V350.3h4.936v100.938H159.4v4.936zm269.244-.052v-4.937h5.924v4.937zm-26.606-.149v-4.937H308.1v4.937zm-23.878 0v-4.937h11.939v4.936zm-23.878-4.937h11.939v4.936h-11.939zm-23.878 4.936v-4.936h11.938v4.936zm-23.878 0v-4.936h11.94v4.936zm148.95-6.438h99.948V348.6h4.936v105.87H349.6zM52.419 329.942v-5.925h4.937v5.925zm398.774-2.242v-5.924h4.936v5.924zM53.725 309.047v-11.939h4.937v11.939zm397.311-1.954v-11.939h4.937v11.939zm-397.31-21.924V273.23h4.937v11.939zm397.31-1.954v-11.939h4.936v11.939zm-397.31-21.923v-11.94h4.936v11.939zm397.31-1.954V247.4h4.936v11.939zm-397.31-21.925v-11.939h4.937v11.939zm397.31-1.954V223.52h4.936v11.939zm-397.31-21.923V201.6h4.937v11.939zm397.31-1.954v-11.939h4.937v11.939zM53.576 186.93v-5.924h4.937v5.924zm398.753-2.241v-5.925h4.936v5.925zM55.228 160.1V55.214H161.1v4.937H60.164V160.1zm396.005-1.687V58.466h-99.948v-4.938H456.17v104.885zM298.116 58.662v-4.936h11.939v4.937zm-23.877 0v-4.936h11.938v4.937zm-23.879 0v-4.936h11.94v4.937zm-47.756 0v-4.936h11.939v4.937zm23.878 0v-4.937h11.939v4.937zM182 53.568h5.924V58.5H182zm143.006 3.8v-4.937h5.926v4.937z" transform="translate(-51.918 -51.931)" stroke="rgba(0,0,0,0)" stroke-miterlimit="10" fill="url(#a)"/></svg>